Patient4_TMGait_0pt6_01_left_11_GRF.mot
version=1
nRows=26
nColumns=19
inDegrees=no
endheader
time	F1x	F1y	F1z	M1x	M1y	M1z	F2x	F2y	F2z	M2x	M2y	M2z	EC1x	EC1y	EC1z	EC2x	EC2y	EC2z
13.36	7.9744	8.7441	5.8553	-2.8482	-5.6673	11.8036	-26.0068	719.8421	-46.3728	295.6835	45.7098	632.2496	-0.0592	0.0182	-0.0073	-0.0462	0.0165	0.9585
13.3718	5.2599	6.4239	4.0737	-2.1655	-3.9993	8.5147	-20.5858	721.0169	-44.7737	295.1962	43.5761	630.9593	-0.0592	0.0182	-0.0073	-0.0462	0.0165	0.9585
13.3836	2.9397	4.5067	2.5323	-1.582	-2.5549	5.7846	-15.2941	722.2279	-43.29	294.912	41.297	628.9095	-0.0592	0.0182	-0.0073	-0.0462	0.0165	0.9585
13.3954	1.1512	3.1112	1.3302	-1.1455	-1.4346	3.7774	-10.4121	723.8243	-42.0972	295.0115	39.0615	626.5235	-0.0592	0.0182	-0.0073	-0.0462	0.0165	0.9585
13.4071	-0.10931	2.2165	0.4936	-0.85811	-0.66578	2.4613	-6.0668	726.1609	-41.3031	295.618	37.0201	624.2895	-0.0592	0.0182	-0.0073	-0.0462	0.0165	0.9585
13.4189	-0.91966	1.7405	-0.033377	-0.69911	-0.20011	1.7291	-2.2622	729.4075	-40.9688	296.7516	35.2804	622.5313	-0.0592	0.0182	-0.0073	-0.0462	0.0165	0.9585
13.4307	-1.3933	1.5461	-0.30843	-0.62894	0.017509	1.4063	1.0412	733.5145	-41.1006	298.3285	33.9009	621.3844	-0.0592	0.0182	-0.0073	-0.0462	0.0165	0.9585
13.4425	-1.6472	1.5049	-0.41442	-0.60728	0.064478	1.3281	3.9223	738.2271	-41.6446	300.187	32.8761	620.7829	-0.0592	0.0182	-0.0073	-0.0462	0.0165	0.9585
13.4543	-1.775	1.4754	-0.40806	-0.58499	-0.002569	1.3149	6.4402	743.183	-42.5072	302.131	32.1602	620.5634	-0.0592	0.0182	-0.0073	-0.0462	0.0165	0.9585
13.4661	-1.858	1.3239	-0.3479	-0.51605	-0.13176	1.2018	8.6571	747.972	-43.5718	303.9594	31.6765	620.4772	-0.0592	0.0182	-0.0073	-0.0462	0.0165	0.9585
13.4779	-1.9311	0.93073	-0.26546	-0.36037	-0.28832	0.84292	10.5901	752.2112	-44.7239	305.4931	31.3491	620.2722	-0.0592	0.0182	-0.0073	-0.0462	0.0165	0.9585
13.4896	-2.0034	0.2002	-0.18506	-0.082152	-0.44243	0.13199	12.2732	755.5624	-45.8628	306.5812	31.099	619.6949	-0.0592	0.0182	-0.0073	-0.0462	0.0165	0.9585
13.5014	-2.0556	-0.93089	-0.11644	0.3448	-0.56701	-1.0144	13.7163	757.7209	-46.9215	307.0888	30.8752	618.506	-0.0592	0.0182	-0.0073	-0.0462	0.0165	0.9585
13.5132	-2.0267	-2.4708	-0.068982	0.92673	-0.62825	-2.6075	14.9686	758.3797	-47.8671	306.8861	30.6376	616.4264	-0.0592	0.0182	-0.0073	-0.0462	0.0165	0.9585
13.525	-1.8162	-4.3563	-0.052246	1.6401	-0.57919	-4.5889	16.0991	757.292	-48.7284	305.8689	30.3878	613.2141	-0.0592	0.0182	-0.0073	-0.0462	0.0165	0.9585
13.5368	-1.2911	-6.3736	-0.073829	2.4041	-0.36505	-6.7404	17.1834	754.3568	-49.5676	303.996	30.151	608.7214	-0.0592	0.0182	-0.0073	-0.0462	0.0165	0.9585
13.5486	-0.28726	-8.1128	-0.14462	3.0598	0.083536	-8.6414	18.3047	749.7517	-50.4706	301.3416	29.969	603.0229	-0.0592	0.0182	-0.0073	-0.0462	0.0165	0.9585
13.5604	1.3695	-8.8706	-0.28018	3.3378	0.84573	-9.5638	19.5545	743.9577	-51.4935	298.1095	29.8606	596.4456	-0.0592	0.0182	-0.0073	-0.0462	0.0165	0.9585
13.5721	3.8116	-7.605	-0.4886	2.8424	1.9807	-8.428	20.9935	737.6402	-52.6614	294.5851	29.8325	589.4718	-0.0592	0.0182	-0.0073	-0.0462	0.0165	0.9585
13.5839	7.0848	-2.91	-0.7746	1.0373	3.5117	-3.7751	22.6739	731.4803	-53.9518	291.063	29.8547	582.6186	-0.0592	0.0182	-0.0073	-0.0462	0.0165	0.9585
13.5957	11.0426	6.9357	-1.1137	-2.7335	5.3631	6.1816	24.6258	725.96	-55.2811	287.7599	29.8544	576.2682	-0.0592	0.0182	-0.0073	-0.0462	0.0165	0.9585
13.6075	15.2441	23.7518	-1.4669	-9.1673	7.3314	23.3415	26.8583	721.2241	-56.5258	284.7572	29.733	570.5457	-0.0592	0.0182	-0.0073	-0.0462	0.0165	0.9585
13.6193	18.8041	49.1231	-1.7493	-18.8648	8.9965	49.3848	29.3662	717.0136	-57.5175	281.9751	29.3607	565.2696	-0.0592	0.0182	-0.0073	-0.0462	0.0165	0.9585
13.6311	20.3224	83.8331	-1.842	-32.1167	9.7041	85.1847	32.1031	712.6125	-58.0764	279.1564	28.6106	559.9094	-0.0592	0.0182	-0.0073	-0.0462	0.0165	0.9585
13.6429	18.1926	127.3669	-1.6024	-48.7159	8.6938	130.3118	35.0055	706.8574	-58.003	275.8709	27.3499	553.5824	-0.0592	0.0182	-0.0073	-0.0462	0.0165	0.9585
13.6546	11.6706	177.7707	-0.84534	-67.8991	5.4936	182.8211	37.9694	698.2104	-57.1004	271.5474	25.4655	545.114	-0.0592	0.0182	-0.0073	-0.0462	0.0165	0.9585
